<?xml version="1.0" encoding="utf-8"?>
<!-- Generator: Adobe Illustrator 19.0.0, SVG Export Plug-In . SVG Version: 6.00 Build 0)  -->
<svg version="1.1" id="Calque_1" xmlns="http://www.w3.org/2000/svg" xmlns:xlink="http://www.w3.org/1999/xlink" x="0px" y="0px"
	 viewBox="-402 136.3 36 324" style="enable-background:new -402 136.3 36 324;" xml:space="preserve">
<style type="text/css">
	.st0{fill:#7FBEE8;}
	.st1{fill:#BC76B2;}
	.st2{fill:#5C74C0;}
</style>
<g id="go2XTc_1_">
</g>
<g>
	<path class="st0" d="M-383.9,244.3c-9.8,0-17.9-8.1-17.9-18s8.1-18,17.9-18s17.9,8.1,17.9,18S-374.1,244.3-383.9,244.3z
		 M-383.9,210.2c-8.8,0-16,7.2-16,16.1s7.2,16.1,16,16.1s16-7.2,16-16.1S-375.1,210.2-383.9,210.2z"/>
	<path class="st0" d="M-387.1,231.6c-0.5,0-0.9-0.4-0.9-0.9v-8.6c0-0.5,0.4-0.9,0.9-0.9c0.5,0,0.9,0.4,0.9,0.9v8.6
		C-386.2,231.2-386.7,231.6-387.1,231.6z"/>
	<path class="st0" d="M-379.7,231.6c-0.5,0-0.9-0.4-0.9-0.9v-8.6c0-0.5,0.4-0.9,0.9-0.9c0.5,0,0.9,0.4,0.9,0.9v8.6
		C-378.7,231.2-379.1,231.6-379.7,231.6z"/>
</g>
<g>
	<path class="st0" d="M-383.9,208.3c-9.8,0-17.9-8.1-17.9-18s8.1-18,17.9-18s17.9,8.1,17.9,18S-374.1,208.3-383.9,208.3z
		 M-383.9,174.2c-8.8,0-16,7.2-16,16.1c0,8.9,7.2,16.1,16,16.1s16-7.2,16-16.1S-375.1,174.2-383.9,174.2z"/>
	<path class="st0" d="M-379.7,195.5h-8.4c-0.5,0-0.9-0.4-0.9-0.9v-8.5c0-0.5,0.4-0.9,0.9-0.9h8.4c0.3,0,0.5,0.1,0.7,0.3
		s0.3,0.4,0.3,0.7v8.5C-378.7,195.1-379.1,195.5-379.7,195.5z M-387.2,193.6h6.6V187h-6.6V193.6z"/>
</g>
<g>
	<path class="st1" d="M-383.9,172.3c-9.8,0-17.9-8.1-17.9-18s8.1-18,17.9-18s17.9,8.1,17.9,18C-366,164.2-374.1,172.3-383.9,172.3z
		 M-383.9,138.2c-8.8,0-16,7.2-16,16.1c0,8.9,7.2,16.1,16,16.1s16-7.2,16-16.1S-375.1,138.2-383.9,138.2z"/>
	<path class="st1" d="M-387.9,162.5c-0.2,0-0.3,0-0.5-0.1c-0.3-0.2-0.5-0.5-0.5-0.8v-14.4c0-0.3,0.2-0.7,0.5-0.8
		c0.3-0.2,0.7-0.2,1,0l12.1,7.2c0.3,0.2,0.5,0.5,0.5,0.8s-0.2,0.6-0.5,0.8l-12.1,7.2C-387.5,162.4-387.7,162.5-387.9,162.5z
		 M-386.9,148.8v11.1l9.3-5.6L-386.9,148.8z"/>
</g>
<path class="st1" d="M-378.9,270.6L-378.9,270.6c-0.7,0-1.3-0.5-1.8-0.9l-3.5-3.6l-3.5,3.5c-1,1-2.6,0.9-3.6,0
	c-0.5-0.5-0.7-1.1-0.7-1.8c0-0.7,0.3-1.3,0.7-1.8l3.8-3.8l-3.8-3.8c-1-1-1-2.6,0-3.6s2.6-1,3.6,0l3.5,3.5l3.5-3.5c1-1,2.6-1,3.6,0
	c1,1,1,2.6,0,3.6l-3.8,3.8l3.8,3.8c0.5,0.5,0.7,1.1,0.7,1.8c0,0.7-0.3,1.5-0.7,2C-377.6,270.2-378.3,270.6-378.9,270.6z
	 M-384.1,264.5l4.3,4.5c0.3,0.3,0.6,0.7,1,0.7l0,0c0.4,0,0.8-0.4,1-0.7c0.3-0.3,0.4-0.8,0.4-1.1c0-0.3-0.2-0.8-0.4-1.1l-4.5-4.5
	l4.5-4.5c0.6-0.6,0.6-1.5,0-2.1c-0.5-0.6-1.5-0.6-2.1,0l-4.3,4.3l-4.3-4.3c-0.5-0.5-1.5-0.5-2.1,0c-0.6,0.6-0.6,1.5,0,2l4.5,4.5
	l-4.5,4.5c-0.3,0.3-0.4,0.6-0.4,1s0.1,0.8,0.4,1c0.5,0.5,1.5,0.5,2,0L-384.1,264.5z"/>
<path class="st1" d="M-383.9,280.3c-9.8,0-17.9-8.1-17.9-18s8.1-18,17.9-18s17.9,8.1,17.9,18S-374.1,280.3-383.9,280.3z
	 M-383.9,245.8c-9,0-16.5,7.4-16.5,16.6c0,9.1,7.4,16.6,16.5,16.6c9,0,16.5-7.4,16.5-16.6S-374.9,245.8-383.9,245.8z"/>
<g id="Music_x5F_Note_1_">
	<g>
		<path class="st1" d="M-371.1,424.5c-0.3-0.2-0.6-0.3-1-0.2l-15.5,4.5c-0.5,0.1-0.8,0.6-0.8,1.1v20.3c-0.9-0.7-2.1-1.1-3.4-1.1
			c-3.1,0-5.6,2.5-5.6,5.6s2.5,5.6,5.6,5.6s5.6-2.5,5.6-5.6v-19.4l13.3-3.9v14.3c-0.9-0.7-2.1-1.1-3.4-1.1c-3.1,0-5.6,2.5-5.6,5.6
			s2.5,5.6,5.6,5.6s5.6-2.5,5.6-5.6v-24.8C-370.6,425.1-370.9,424.8-371.1,424.5z M-391.7,458.2c-1.9,0-3.4-1.5-3.4-3.4
			s1.5-3.4,3.4-3.4c1.9,0,3.4,1.5,3.4,3.4C-388.3,456.6-389.8,458.2-391.7,458.2z M-376.1,453.6c-1.9,0-3.4-1.5-3.4-3.4
			s1.5-3.4,3.4-3.4s3.4,1.5,3.4,3.4C-372.8,452.1-374.3,453.6-376.1,453.6z M-372.8,429.2l-13.3,3.9V431l13.3-3.9V429.2
			L-372.8,429.2z"/>
	</g>
</g>
<g>
	<g>
		<path class="st2" d="M-383.9,316.3c-9.8,0-17.9-8.1-17.9-18s8-18,17.9-18c9.8,0,17.9,8.1,17.9,18
			C-366.1,308.2-374.1,316.3-383.9,316.3z M-383.9,283.9c-7.8,0-14.2,6.4-14.2,14.4s6.3,14.4,14.2,14.4c7.8,0,14.2-6.4,14.2-14.4
			C-369.9,290.4-376.2,283.9-383.9,283.9z"/>
		<path class="st2" d="M-384.8,300.6c-1,0-1.9-0.8-1.9-1.9v-7.5c0-1,0.8-1.9,1.9-1.9c1.1,0,1.9,0.8,1.9,1.9v7.5
			C-383.1,299.8-383.9,300.6-384.8,300.6z"/>
	</g>
	<path class="st2" d="M-377.5,301.1h-7.4c-1,0-1.9-0.8-1.9-1.9c0-1,0.8-1.9,1.9-1.9h7.4c1,0,1.9,0.8,1.9,1.9
		S-376.5,301.1-377.5,301.1z"/>
</g>
<g id="User_1_">
	<g>
		<path class="st1" d="M-384,413.1c5.6,0,10-5.5,10-12.4s-4.5-12.4-10-12.4c-2.8,0-5.3,1.3-7.1,3.7c-1.9,2.3-2.9,5.3-2.9,8.7
			C-394.1,407.6-389.6,413.1-384,413.1z M-384,390.6c4.3,0,7.8,4.5,7.8,10.1c0,5.5-3.5,10.1-7.8,10.1c-4.3,0-7.8-4.5-7.8-10.1
			S-388.3,390.6-384,390.6z M-376.3,410.8c-0.6,0-1.1,0.5-1.1,1.1s0.5,1.1,1.1,1.1c4.3,0,7.8,3.5,7.8,7.9c0,0.6-0.5,1.1-1.1,1.1h-29
			c-0.6,0-1.1-0.5-1.1-1.1c0-4.3,3.5-7.9,7.8-7.9c0.6,0,1.1-0.5,1.1-1.1s-0.5-1.1-1.1-1.1c-5.6,0-10,4.5-10,10.1
			c0,1.9,1.5,3.4,3.4,3.4h29c1.9,0,3.4-1.5,3.4-3.4C-366.2,415.4-370.7,410.8-376.3,410.8z"/>
	</g>
</g>
<g id="Smartphone_1_">
	<g>
		<path class="st1" d="M-375.9,352.3H-392c-1.7,0-3.1,1.5-3.1,3.2V385c0,1.8,1.4,3.2,3.1,3.2h16.1c1.7,0,3.1-1.5,3.1-3.2v-29.5
			C-372.9,353.8-374.2,352.3-375.9,352.3z M-375.1,385.2c0,0.5-0.4,1-0.8,1H-392c-0.5,0-0.8-0.4-0.8-1v-4.7h17.8L-375.1,385.2
			L-375.1,385.2z M-375.1,378.2h-17.8v-16.9h17.8V378.2z M-375.1,359.1h-17.8v-3.5c0-0.5,0.4-1,0.8-1h16.1c0.5,0,0.8,0.4,0.8,1
			L-375.1,359.1L-375.1,359.1z M-383.9,385c0.9,0,1.7-0.8,1.7-1.7c0-0.9-0.8-1.7-1.7-1.7c-0.9,0-1.7,0.8-1.7,1.7
			C-385.6,384.1-384.8,385-383.9,385z M-381.8,355.6h-4.5c-0.6,0-1.1,0.5-1.1,1.1s0.5,1.1,1.1,1.1h4.5c0.6,0,1.1-0.5,1.1-1.1
			S-381.1,355.6-381.8,355.6z"/>
	</g>
</g>
<g id="Mail_x5F_1_1_">
	<g>
		<path class="st1" d="M-366.9,317.3c-0.6-0.6-1.5-1-2.4-1h-29c-0.9,0-1.7,0.4-2.4,1c-0.6,0.6-1,1.5-1,2.4v29.2c0,0.2,0,0.5,0.1,0.7
			v0.1c0,0.2,0.1,0.4,0.2,0.5l0,0c0.2,0.4,0.4,0.7,0.7,1c0.1,0.1,0.3,0.3,0.5,0.4l0,0c0.2,0.1,0.3,0.2,0.5,0.3h0.1
			c0.2,0.1,0.3,0.1,0.5,0.2h0.1c0.2,0,0.4,0.1,0.7,0.1h28.9c0.2,0,0.5,0,0.7-0.1h0.1c0.2,0,0.3-0.1,0.5-0.2h0.1
			c0.2-0.1,0.3-0.2,0.5-0.3l0,0c0.2-0.1,0.3-0.2,0.5-0.4c0.3-0.3,0.5-0.6,0.7-1c0,0,0,0,0-0.1c0.1-0.2,0.1-0.3,0.2-0.5v-0.1
			c0-0.2,0.1-0.4,0.1-0.7v-29.2C-365.9,318.8-366.3,317.9-366.9,317.3z M-399.4,323.3l10.9,11l-10.9,11V323.3z M-368.2,349.5
			c-0.1,0.1-0.1,0.3-0.2,0.4c-0.1,0.1-0.2,0.2-0.4,0.2c-0.1,0.1-0.3,0.1-0.4,0.1h-29.1c-0.2,0-0.3,0-0.4-0.1
			c-0.1-0.1-0.3-0.1-0.4-0.2c-0.1-0.1-0.2-0.2-0.2-0.4c-0.1-0.1-0.1-0.3-0.1-0.4c0-0.3,0.1-0.6,0.3-0.8l12.1-12.2l0.8,0.8
			c0.6,0.6,1.5,1,2.4,1c0.9,0,1.7-0.4,2.4-1l0.8-0.8l12.1,12.2c0.2,0.2,0.3,0.5,0.3,0.8C-368.1,349.2-368.2,349.3-368.2,349.5z
			 M-368.1,345.3l-10.9-11l10.9-11V345.3z M-368.5,320.5l-14.5,14.7c-0.4,0.4-1.2,0.4-1.6,0l-14.5-14.7c-0.2-0.2-0.3-0.5-0.3-0.8
			s0.1-0.6,0.3-0.8c0.2-0.2,0.5-0.3,0.8-0.3h29c0.3,0,0.6,0.1,0.8,0.3c0.2,0.2,0.3,0.5,0.3,0.8C-368.1,320-368.3,320.3-368.5,320.5z
			"/>
	</g>
</g>
</svg>
